# xmcd
#
# Track frame offsets:
#	150
#	11065
#	24152
#	37705
#	49700
#	61177
#	72635
#	84137
#	97345
#	115007
#	126510
#	141340
#	152517
#	170490
#	183967
#
# Disc length: 2612
#
# Revision: 1
# Processed by: cddbd v1.5.1PL0 Copyright (c) Steve Scherf et al.
# Submitted via: CDex 1.50
# Normalized: r0:TDELIM( - ),TSWAP
#
DISCID=c00a320f
DTITLE=Various Artist - The Heart of Country
DYEAR=2004
DGENRE=Country
TTITLE0=Patti Page - Tennessee Waltz
TTITLE1=Lynn Anderson - Rose Garden
TTITLE2=Loretta Lynn - Coal Miner's Daughter
TTITLE3=Tammy Wynette - Stand By Your Man
TTITLE4=Crystal Gayle - Don't It Make My Brown Eyes Blue
TTITLE5=Patsy Cline - Walking After Midnight
TTITLE6=Dolly Parton - Why'd You Come In Here Lookin' Like That
TTITLE7=Tanya Tucker - Delta Dawn
TTITLE8=Emmylou Harris - Together Again
TTITLE9=Sammi Smith - Help Me Make It Through the Night
TTITLE10=Jeanne Pruett - Satin Sheets
TTITLE11=Patty Loveless - Chains
TTITLE12=Pam Tillis - Maybe It Was Memphis
TTITLE13=Tammy Cochran - I'm Getting There
TTITLE14=Shelby Lynne - Don't Mind If I Do
EXTD=YEAR: 2004
EXTT0=
EXTT1=
EXTT2=
EXTT3=
EXTT4=
EXTT5=
EXTT6=
EXTT7=
EXTT8=
EXTT9=
EXTT10=
EXTT11=
EXTT12=
EXTT13=
EXTT14=
PLAYORDER=
